<svg xmlns="http://www.w3.org/2000/svg" width="296" height="42"><defs><clipPath id="a"><path fill="#fff" stroke="#707070" d="M0 15633h296v42H0z" data-name="長方形 1913"/></clipPath></defs><g clip-path="url(#a)" data-name="マスクグループ 5" transform="translate(0 -15633)"><g data-name="グループ 2554"><path fill="#001345" d="m-15.083 15675.116 34.724-34.723h-80.485l-34.723 34.723h80.483" data-name="パス 6412"/><path fill="#001345" d="m-66.516 15675.116 34.724-34.723h-80.485l-34.723 34.723h80.483" data-name="パス 6411"/><g data-name="グループ 1991"><path fill="#001345" stroke="#001345" stroke-width="3" d="m121.175 15674.323 33.14-33.141H77.5l-33.139 33.141h76.814" data-name="パス 6385"/><path fill="#fff" stroke="#001345" stroke-width="3" d="m74.554 15674.323 33.14-33.141H30.879l-33.139 33.141h76.814" data-name="パス 6387"/><text fill="#fff" data-name="5F" font-family="Arial-BoldMT, Arial" font-size="19" font-weight="700" letter-spacing=".05em" transform="translate(99.351 15665.607)"><tspan x="0" y="0">5F</tspan></text><text fill="#001345" data-name="8.1(土)" font-family="Arial-BoldMT, Arial" font-size="20" font-weight="700" transform="translate(28.351 15664.93)"><tspan x="0" y="0" letter-spacing="-.05em">8.</tspan><tspan y="0" letter-spacing=".01em">1</tspan><tspan y="0" font-family="NotoSansJP-Bold, Noto Sans JP" font-size="8">(土)</tspan></text></g><g data-name="グループ 1992"><path fill="#001345" stroke="#001345" stroke-width="3" d="m253.496 15674.323 33.14-33.141h-76.815l-33.139 33.141h76.814" data-name="パス 6388"/><path fill="#fff" stroke="#001345" stroke-width="3" d="m206.875 15674.323 33.14-33.141H163.2l-33.139 33.141h76.814" data-name="パス 6389"/><text fill="#fff" data-name="5F" font-family="Arial-BoldMT, Arial" font-size="19" font-weight="700" letter-spacing=".05em" transform="translate(231.848 15665.607)"><tspan x="0" y="0">5F</tspan></text><text fill="#001345" data-name="8.2(日)" font-family="Arial-BoldMT, Arial" font-size="20" font-weight="700" transform="translate(160.848 15664.93)"><tspan x="0" y="0" letter-spacing="-.05em">8</tspan><tspan y="0">.</tspan><tspan y="0" letter-spacing=".05em">2</tspan><tspan y="0" font-family="NotoSansJP-Bold, Noto Sans JP" font-size="8">(日)</tspan></text></g><g fill="#001345" data-name="グループ 2051"><path d="M-99.115 15633.184h385.378v9.112H-99.115z" data-name="長方形 1480"/><path d="m286.67 15642.296 9.112-9.112h-21.121l-9.112 9.112z" data-name="パス 6384"/></g></g></g></svg>