<svg xmlns="http://www.w3.org/2000/svg" width="346" height="37"><defs><clipPath id="a"><path fill="#fff" stroke="#707070" d="M0 21601h346v37H0z" data-name="長方形 1915"/></clipPath></defs><g clip-path="url(#a)" data-name="マスクグループ 7" transform="translate(0 -21601)"><g data-name="グループ 2566"><g fill="#001345" data-name="グループ 2056"><path d="m-15.686 21636.183 35-35h-81.128l-35 35z" data-name="パス 6417"/><path d="m-67.531 21636.183 35-35h-81.128l-35 35z" data-name="パス 6418"/></g><g data-name="グループ 2057"><g data-name="グループ 1997"><path fill="#001345" stroke="#001345" stroke-width="3" d="m121.667 21636.183 33.405-33.405H77.643l-33.4 33.405h77.428" data-name="パス 6385"/><path fill="#fff" stroke="#001345" stroke-width="3" d="m74.673 21636.183 33.405-33.405H30.649l-33.4 33.405h77.428" data-name="パス 6387"/><text fill="#fff" data-name="3F" font-family="Arial-BoldMT, Arial" font-size="18" font-weight="700" letter-spacing=".05em" transform="translate(99.669 21626.261)"><tspan x="0" y="0">3F</tspan></text><text fill="#001345" data-name="8.1(土)" font-family="Arial-BoldMT, Arial" font-size="21" font-weight="700" transform="translate(28.1 21627.571)"><tspan x="0" y="0" letter-spacing="-.05em">8.</tspan><tspan y="0" letter-spacing=".01em">1</tspan><tspan y="0" font-family="NotoSansJP-Bold, Noto Sans JP" font-size="9">(土)</tspan></text></g><path fill="#001345" stroke="#001345" stroke-width="3" d="m175.202 21636.183 33.406-33.405h-47.13l-33.4 33.405h47.129" data-name="パス 6385"/><text fill="#fff" data-name="5F" font-family="Arial-BoldMT, Arial" font-size="18" font-weight="700" letter-spacing=".05em" transform="translate(153.204 21626.261)"><tspan x="0" y="0">5F</tspan></text><g data-name="グループ 1998"><path fill="#001345" stroke="#001345" stroke-width="3" d="m313.09 21636.183 33.405-33.405h-77.429l-33.4 33.405h77.428" data-name="パス 6388"/><path fill="#fff" stroke="#001345" stroke-width="3" d="m266.096 21636.183 33.405-33.405h-77.429l-33.4 33.405H266.1" data-name="パス 6389"/><text fill="#fff" data-name="5F" font-family="Arial-BoldMT, Arial" font-size="18" font-weight="700" letter-spacing=".05em" transform="translate(291.269 21626.261)"><tspan x="0" y="0">5F</tspan></text><text fill="#001345" data-name="8.2(日)" font-family="Arial-BoldMT, Arial" font-size="20" font-weight="700" transform="translate(219.701 21626.571)"><tspan x="0" y="0" letter-spacing="-.05em">8</tspan><tspan y="0">.</tspan><tspan y="0" letter-spacing=".05em">2</tspan><tspan y="0" font-family="NotoSansJP-Bold, Noto Sans JP" font-size="9">(日)</tspan></text></g></g></g></g></svg>