<svg xmlns="http://www.w3.org/2000/svg" width="796.621" height="63.891" viewBox="0 0 796.621 63.891">
  <g id="グループ_2562" data-name="グループ 2562" transform="translate(0 -13049)">
    <g id="グループ_2056" data-name="グループ 2056" transform="translate(0 -892.497)">
      <path id="パス_6417" data-name="パス 6417" d="M3239.94-2473.913l62.112-62.11H3158.087l-62.109,62.11H3239.94" transform="translate(-3089.63 16477.801)" fill="#001345"/>
      <rect id="長方形_1915" data-name="長方形 1915" width="70" height="62" transform="translate(0 13941.497)" fill="#001345"/>
    </g>
    <g id="グループ_2057" data-name="グループ 2057" transform="translate(0 199.352)">
      <g id="グループ_1997" data-name="グループ 1997" transform="translate(173.246 12852.76)">
        <path id="パス_6385" data-name="パス 6385" d="M3233.376-2476.744l59.279-59.279h-137.4l-59.277,59.279h137.4" transform="translate(-3012.586 2536.022)" fill="#001345" stroke="#001345" stroke-width="3"/>
        <path id="パス_6387" data-name="パス 6387" d="M3233.376-2476.744l59.279-59.279h-137.4l-59.277,59.279h137.4" transform="translate(-3095.978 2536.022)" fill="#fff" stroke="#001345" stroke-width="3"/>
        <text id="_3F" data-name="3F" transform="translate(181.754 45.279)" fill="#fff" font-size="35" font-family="Arial-BoldMT, Arial" font-weight="700" letter-spacing="0.05em"><tspan x="0" y="0">3F</tspan></text>
        <text id="_8.1_土_" data-name="8.1(土)" transform="translate(54.754 45.279)" fill="#001345" font-size="39" font-family="Arial-BoldMT, Arial" font-weight="700"><tspan x="0" y="0" letter-spacing="-0.05em">8.</tspan><tspan y="0" letter-spacing="0.01em">1</tspan><tspan y="0" font-size="17" font-family="NotoSansJP-Bold, Noto Sans JP">(土)</tspan></text>
      </g>
      <path id="パス_6385-2" data-name="パス 6385" d="M3233.376-2476.744l59.279-59.279h-83.634l-59.277,59.279h83.632" transform="translate(-2744.34 15388.782)" fill="#001345" stroke="#001345" stroke-width="3"/>
      <text id="_5F" data-name="5F" transform="translate(450 12898.039)" fill="#fff" font-size="35" font-family="Arial-BoldMT, Arial" font-weight="700" letter-spacing="0.05em"><tspan x="0" y="0">5F</tspan></text>
      <g id="グループ_1998" data-name="グループ 1998" transform="translate(512.931 12852.76)">
        <path id="パス_6388" data-name="パス 6388" d="M3233.376-2476.744l59.279-59.279h-137.4l-59.277,59.279h137.4" transform="translate(-3012.586 2536.022)" fill="#001345" stroke="#001345" stroke-width="3"/>
        <path id="パス_6389" data-name="パス 6389" d="M3233.376-2476.744l59.279-59.279h-137.4l-59.277,59.279h137.4" transform="translate(-3095.978 2536.022)" fill="#fff" stroke="#001345" stroke-width="3"/>
        <text id="_5F-2" data-name="5F" transform="translate(182.069 45.279)" fill="#fff" font-size="35" font-family="Arial-BoldMT, Arial" font-weight="700" letter-spacing="0.05em"><tspan x="0" y="0">5F</tspan></text>
        <text id="_8.2_日_" data-name="8.2(日)" transform="translate(55.069 45.279)" fill="#001345" font-size="39" font-family="Arial-BoldMT, Arial" font-weight="700"><tspan x="0" y="0" letter-spacing="-0.05em">8</tspan><tspan y="0">.</tspan><tspan y="0" letter-spacing="0.05em">2</tspan><tspan y="0" font-size="17" font-family="NotoSansJP-Bold, Noto Sans JP">(日)</tspan></text>
      </g>
    </g>
  </g>
</svg>
